<svg id="Layer_1" data-name="Layer 1" xmlns="http://www.w3.org/2000/svg" viewBox="0 0 200 200"><defs><style>.cls-1{fill:#fff;}</style></defs><path class="cls-1" d="M117.35,15.51A4.66,4.66,0,0,0,122,20.17a41.46,41.46,0,0,1,41.41,41.41,4.66,4.66,0,1,0,9.32,0A50.79,50.79,0,0,0,122,10.85,4.66,4.66,0,0,0,117.35,15.51Zm52.79,46.07a2.06,2.06,0,0,1-4.12,0,44.06,44.06,0,0,0-44-44,2.06,2.06,0,0,1,0-4.12A48.18,48.18,0,0,1,170.14,61.58Z"/><path class="cls-1" d="M147,62.12a4.66,4.66,0,0,0,9.32,0,34.88,34.88,0,0,0-34.83-34.83,4.66,4.66,0,1,0,0,9.32A25.55,25.55,0,0,1,147,62.12ZM119.4,32a2.07,2.07,0,0,1,2.07-2.06A32.27,32.27,0,0,1,153.7,62.12a2.06,2.06,0,1,1-4.12,0A28.14,28.14,0,0,0,121.47,34,2.07,2.07,0,0,1,119.4,32Z"/><path class="cls-1" d="M86.21,177.76l-1.61-1.82c-2.35-2.63-57.34-64.75-57.34-90.14,0-26,26.44-47.17,58.95-47.17s59,21.16,59,47.17c0,25.39-55,87.51-57.34,90.14ZM86.21,43C56.09,43,31.58,62.17,31.58,85.8c0,21.46,45.42,74.82,54.63,85.43,9.21-10.61,54.63-64,54.63-85.43C140.84,62.17,116.33,43,86.21,43Z"/><path class="cls-1" d="M71.51,103.23h0A12.26,12.26,0,0,0,83.75,91a12.24,12.24,0,1,0-12.24,12.24Zm-6.36-18.6A9,9,0,1,1,71.51,100h0a9,9,0,0,1-6.36-15.37Z"/><path class="cls-1" d="M100.91,103.23h0A12.26,12.26,0,0,0,113.15,91a12.24,12.24,0,1,0-12.24,12.24Zm-6.37-18.6A9,9,0,1,1,100.91,100h0a9,9,0,0,1-6.37-15.37Z"/><path class="cls-1" d="M116.41,120.4c0-.43.28-10.77-6.22-16.72a1.61,1.61,0,0,0-2.08-.09c-.06,0-4.62,3.46-9.84,2.12a4.63,4.63,0,0,0-3.55-3.95,6.35,6.35,0,0,0-7,3.06.75.75,0,0,1-.63.38.79.79,0,0,1-.67-.37,6.42,6.42,0,0,0-5.6-3.3,5.81,5.81,0,0,0-1.52.19,4.65,4.65,0,0,0-3.37,3.39,10.61,10.61,0,0,1-11.11-1.51,1.63,1.63,0,0,0-2.09,0c-.26.23-6.52,5.8-6.68,16.7A1.64,1.64,0,0,0,57.62,122H85.4a1.55,1.55,0,0,0,.8-.22A1.69,1.69,0,0,0,87,122h27.77A1.62,1.62,0,0,0,116.41,120.4Zm-57.09-1.66A20.4,20.4,0,0,1,63.93,107a13.78,13.78,0,0,0,12.15,1.5c1.16,3.41,4.87,7.11,7.59,9.49,0,.26,0,.51.06.74ZM77.63,106.5a2.74,2.74,0,0,1,2.12-2.93,4.19,4.19,0,0,1,1-.13,4.54,4.54,0,0,1,3.94,2.34A2.71,2.71,0,0,0,87,107.12a2.67,2.67,0,0,0,2.31-1.38,4.43,4.43,0,0,1,4.9-2.13,2.73,2.73,0,0,1,2.16,2.89c0,3.12-4.62,8.08-9.39,11.78C83.28,115.34,77.63,110,77.63,106.5Zm11.88,12.24c2.63-2.2,6.83-6.12,8.29-9.8a15.5,15.5,0,0,0,11.09-2c3.29,3.72,4.06,9.12,4.24,11.76Z"/><path class="cls-1" d="M107.33,152.31l-2.57,3.22c21.72,2.39,35.71,8.74,35.71,14.57,0,7.35-22.28,15.55-54.26,15.55S32,177.45,32,170.1c0-5.88,14.23-12.29,36.26-14.63l-2.57-3.22c-20.31,2.43-37.2,8.52-37.2,17.85,0,12.37,29.76,19.05,57.77,19.05S144,182.47,144,170.1C144,160.85,127.39,154.79,107.33,152.31Z"/></svg>